<svg width="17" height="12" viewBox="0 0 17 12" fill="none" xmlns="http://www.w3.org/2000/svg">
<path d="M2.49993 3.49994C2.49986 2.91982 2.64399 2.34877 2.91936 1.83816C3.19473 1.32755 3.5927 0.893404 4.07748 0.574757C4.56226 0.25611 5.11865 0.0629611 5.69659 0.0126823C6.27454 -0.0375964 6.85591 0.0565721 7.38844 0.286718C7.92096 0.516864 8.38792 0.875769 8.74733 1.33115C9.10674 1.78654 9.34732 2.32412 9.44742 2.89554C9.54753 3.46697 9.50403 4.05431 9.32084 4.60476C9.13764 5.1552 8.8205 5.65147 8.39793 6.04894C9.19474 6.4356 9.88655 7.0087 10.4147 7.71965C10.9429 8.4306 11.2918 9.25843 11.4319 10.1329C11.4474 10.2303 11.4435 10.3296 11.4205 10.4255C11.3975 10.5213 11.3559 10.6116 11.298 10.6913C11.2401 10.771 11.1671 10.8386 11.0831 10.8901C10.9991 10.9416 10.9057 10.976 10.8084 10.9914C10.7111 11.0069 10.6117 11.003 10.5159 10.98C10.4201 10.957 10.3298 10.9154 10.25 10.8575C10.1703 10.7996 10.1028 10.7266 10.0513 10.6426C9.99981 10.5586 9.96536 10.4653 9.94993 10.3679C9.79994 9.42825 9.31986 8.57281 8.5959 7.95524C7.87193 7.33767 6.95152 6.99842 5.99993 6.99842C5.04834 6.99842 4.12793 7.33767 3.40396 7.95524C2.68 8.57281 2.19992 9.42825 2.04993 10.3679C2.03443 10.4653 1.99992 10.5586 1.94837 10.6425C1.89681 10.7265 1.82922 10.7995 1.74946 10.8573C1.66969 10.9152 1.57931 10.9568 1.48348 10.9797C1.38765 11.0026 1.28824 11.0064 1.19093 10.9909C1.09362 10.9754 1.00032 10.9409 0.916344 10.8894C0.832372 10.8378 0.759377 10.7702 0.701526 10.6905C0.643675 10.6107 0.602101 10.5203 0.579179 10.4245C0.556257 10.3287 0.552434 10.2293 0.56793 10.1319C0.708265 9.25776 1.05731 8.4303 1.58546 7.71971C2.11362 7.00911 2.80532 6.43634 3.60193 6.04994C3.2536 5.72287 2.97608 5.32782 2.78653 4.8892C2.59698 4.45059 2.49944 3.97776 2.49993 3.49994ZM11.4999 1.99994C12.0809 2.00035 12.6493 2.16941 13.1361 2.48659C13.6229 2.80378 14.0072 3.25545 14.2423 3.78679C14.4773 4.31813 14.5531 4.90628 14.4604 5.47984C14.3677 6.05341 14.1104 6.58773 13.7199 7.01794C14.3286 7.32013 14.8694 7.74298 15.3095 8.26079C15.7496 8.77859 16.0798 9.38052 16.2799 10.0299C16.3196 10.156 16.3251 10.2903 16.2961 10.4192C16.267 10.5482 16.2044 10.6671 16.1145 10.764C16.0246 10.8609 15.9107 10.9323 15.7844 10.9709C15.658 11.0095 15.5236 11.014 15.3949 10.9839C15.2664 10.954 15.1479 10.8907 15.0516 10.8005C14.9552 10.7103 14.8843 10.5963 14.8459 10.4699C14.6667 9.89015 14.3401 9.36679 13.898 8.95103C13.456 8.53526 12.9136 8.24132 12.3239 8.09794C12.1602 8.05841 12.0145 7.9649 11.9104 7.83247C11.8062 7.70004 11.7497 7.53641 11.7499 7.36794V7.01594C11.7498 6.87631 11.7887 6.73943 11.8622 6.6207C11.9357 6.50198 12.0409 6.40613 12.1659 6.34394C12.4691 6.1937 12.7126 5.94537 12.8568 5.63929C13.001 5.33321 13.0375 4.98737 12.9603 4.65793C12.8832 4.32849 12.6969 4.03481 12.4318 3.82459C12.1667 3.61437 11.8383 3.49996 11.4999 3.49994C11.301 3.49994 11.1103 3.42093 10.9696 3.28027C10.8289 3.13962 10.7499 2.94886 10.7499 2.74994C10.7499 2.55103 10.8289 2.36027 10.9696 2.21961C11.1103 2.07896 11.301 1.99994 11.4999 1.99994ZM5.99993 1.49994C5.73359 1.49392 5.46873 1.54117 5.22091 1.63891C4.97308 1.73666 4.74728 1.88293 4.55676 2.06915C4.36624 2.25536 4.21484 2.47776 4.11146 2.72329C4.00807 2.96882 3.95478 3.23252 3.95471 3.49893C3.95465 3.76534 4.00781 4.02907 4.11107 4.27465C4.21433 4.52024 4.36562 4.74271 4.55604 4.92902C4.74647 5.11533 4.9722 5.26171 5.21998 5.35958C5.46775 5.45745 5.73259 5.50483 5.99893 5.49894C6.52149 5.48739 7.01877 5.27172 7.3843 4.8981C7.74984 4.52449 7.95458 4.02262 7.95471 3.49993C7.95485 2.97724 7.75035 2.47527 7.385 2.10147C7.01965 1.72768 6.52249 1.51176 5.99993 1.49994Z" fill="#8B949E"/>
</svg>
