<svg width="17" height="16" viewBox="0 0 17 16" fill="none" xmlns="http://www.w3.org/2000/svg">
<path d="M8.56242 0.25C8.70243 0.24991 8.83968 0.289014 8.95862 0.362887C9.07756 0.43676 9.17344 0.542452 9.23542 0.668L11.1174 4.483L15.3274 5.095C15.4659 5.11511 15.596 5.17355 15.7029 5.26372C15.8099 5.35388 15.8896 5.47218 15.9328 5.60523C15.9761 5.73829 15.9813 5.8808 15.9478 6.01665C15.9144 6.1525 15.8436 6.27628 15.7434 6.374L12.6974 9.344L13.4164 13.536C13.4397 13.6738 13.4241 13.8154 13.3713 13.9449C13.3185 14.0743 13.2306 14.1865 13.1176 14.2687C13.0045 14.3509 12.8707 14.3999 12.7313 14.4102C12.5919 14.4205 12.4523 14.3917 12.3284 14.327L8.56242 12.347L4.79642 14.327C4.67261 14.392 4.53309 14.4211 4.39361 14.411C4.25413 14.4009 4.12026 14.352 4.0071 14.2699C3.89394 14.1877 3.80601 14.0755 3.75323 13.946C3.70046 13.8165 3.68493 13.6749 3.70842 13.537L4.42842 9.343L1.38042 6.374C1.27999 6.27632 1.20892 6.15247 1.17527 6.01647C1.14162 5.88047 1.14674 5.73777 1.19004 5.60453C1.23335 5.47129 1.3131 5.35284 1.42028 5.26261C1.52745 5.17238 1.65775 5.11397 1.79642 5.094L6.00642 4.483L7.88942 0.668C7.9514 0.542452 8.04729 0.43676 8.16622 0.362887C8.28516 0.289014 8.42241 0.24991 8.56242 0.25ZM8.56242 2.695L7.17742 5.5C7.12364 5.6089 7.04421 5.70311 6.94596 5.77453C6.84772 5.84595 6.7336 5.89244 6.61342 5.91L3.51642 6.36L5.75642 8.544C5.84357 8.62886 5.90878 8.73365 5.94641 8.84933C5.98404 8.96501 5.99296 9.0881 5.97242 9.208L5.44442 12.292L8.21342 10.836C8.32105 10.7794 8.44082 10.7499 8.56242 10.7499C8.68402 10.7499 8.80379 10.7794 8.91142 10.836L11.6814 12.292L11.1514 9.208C11.1309 9.0881 11.1398 8.96501 11.1774 8.84933C11.2151 8.73365 11.2803 8.62886 11.3674 8.544L13.6074 6.361L10.5114 5.911C10.3912 5.89344 10.2771 5.84695 10.1789 5.77553C10.0806 5.70411 10.0012 5.6099 9.94742 5.501L8.56242 2.695Z" fill="#8B949E"/>
</svg>
