<svg width="13" height="14" viewBox="0 0 13 14" fill="none" xmlns="http://www.w3.org/2000/svg">
<path d="M3.5625 4.37181V5.24981C3.5625 5.66381 3.8985 5.99981 4.3125 5.99981H8.8125C9.01142 5.99981 9.20218 5.92079 9.34283 5.78014C9.48349 5.63949 9.5625 5.44872 9.5625 5.24981V4.37181C9.06209 4.19489 8.64034 3.84676 8.37178 3.38895C8.10322 2.93114 8.00515 2.39313 8.09491 1.87001C8.18466 1.34689 8.45646 0.872336 8.86226 0.53023C9.26806 0.188123 9.78174 0.000488281 10.3125 0.000488281C10.8433 0.000488281 11.3569 0.188123 11.7627 0.53023C12.1686 0.872336 12.4403 1.34689 12.5301 1.87001C12.6199 2.39313 12.5218 2.93114 12.2532 3.38895C11.9847 3.84676 11.5629 4.19489 11.0625 4.37181V5.24981C11.0625 5.84655 10.8255 6.41884 10.4035 6.8408C9.98154 7.26276 9.40924 7.49981 8.8125 7.49981H7.3125V9.62781C7.81319 9.80474 8.23521 10.153 8.50396 10.611C8.7727 11.069 8.87087 11.6073 8.78112 12.1307C8.69136 12.6541 8.41945 13.1289 8.01346 13.4712C7.60747 13.8134 7.09354 14.0012 6.5625 14.0012C6.03147 14.0012 5.51754 13.8134 5.11155 13.4712C4.70556 13.1289 4.43365 12.6541 4.34389 12.1307C4.25414 11.6073 4.35231 11.069 4.62105 10.611C4.8898 10.153 5.31182 9.80474 5.8125 9.62781V7.49981H4.3125C3.71577 7.49981 3.14347 7.26276 2.72151 6.8408C2.29956 6.41884 2.0625 5.84655 2.0625 5.24981V4.37181C1.56209 4.19489 1.14034 3.84676 0.871781 3.38895C0.603223 2.93114 0.505154 2.39313 0.594908 1.87001C0.684661 1.34689 0.956458 0.872336 1.36226 0.53023C1.76806 0.188123 2.28174 0.000488281 2.8125 0.000488281C3.34327 0.000488281 3.85695 0.188123 4.26275 0.53023C4.66855 0.872336 4.94035 1.34689 5.0301 1.87001C5.11985 2.39313 5.02179 2.93114 4.75323 3.38895C4.48467 3.84676 4.06292 4.19489 3.5625 4.37181ZM3.5625 2.24981C3.5625 2.0509 3.48349 1.86013 3.34283 1.71948C3.20218 1.57883 3.01142 1.49981 2.8125 1.49981C2.61359 1.49981 2.42283 1.57883 2.28217 1.71948C2.14152 1.86013 2.0625 2.0509 2.0625 2.24981C2.0625 2.44872 2.14152 2.63949 2.28217 2.78014C2.42283 2.92079 2.61359 2.99981 2.8125 2.99981C3.01142 2.99981 3.20218 2.92079 3.34283 2.78014C3.48349 2.63949 3.5625 2.44872 3.5625 2.24981ZM10.3125 2.99981C10.5114 2.99981 10.7022 2.92079 10.8428 2.78014C10.9835 2.63949 11.0625 2.44872 11.0625 2.24981C11.0625 2.0509 10.9835 1.86013 10.8428 1.71948C10.7022 1.57883 10.5114 1.49981 10.3125 1.49981C10.1136 1.49981 9.92283 1.57883 9.78218 1.71948C9.64152 1.86013 9.5625 2.0509 9.5625 2.24981C9.5625 2.44872 9.64152 2.63949 9.78218 2.78014C9.92283 2.92079 10.1136 2.99981 10.3125 2.99981ZM7.3125 11.7498C7.3125 11.5509 7.23349 11.3601 7.09283 11.2195C6.95218 11.0788 6.76142 10.9998 6.5625 10.9998C6.36359 10.9998 6.17283 11.0788 6.03217 11.2195C5.89152 11.3601 5.8125 11.5509 5.8125 11.7498C5.8125 11.9487 5.89152 12.1395 6.03217 12.2801C6.17283 12.4208 6.36359 12.4998 6.5625 12.4998C6.76142 12.4998 6.95218 12.4208 7.09283 12.2801C7.23349 12.1395 7.3125 11.9487 7.3125 11.7498Z" fill="#8B949E"/>
</svg>
