<svg width="13" height="16" viewBox="0 0 13 16" fill="none" xmlns="http://www.w3.org/2000/svg">
<path d="M0.500001 2.5C0.500001 1.83696 0.763394 1.20107 1.23223 0.732233C1.70108 0.263392 2.33696 0 3 0L11.75 0C11.9489 0 12.1397 0.0790176 12.2803 0.21967C12.421 0.360322 12.5 0.551088 12.5 0.75V13.25C12.5 13.4489 12.421 13.6397 12.2803 13.7803C12.1397 13.921 11.9489 14 11.75 14H9.25C9.05109 14 8.86032 13.921 8.71967 13.7803C8.57902 13.6397 8.5 13.4489 8.5 13.25C8.5 13.0511 8.57902 12.8603 8.71967 12.7197C8.86032 12.579 9.05109 12.5 9.25 12.5H11V10.5H3C2.80308 10.5 2.61056 10.5582 2.44657 10.6672C2.28257 10.7762 2.15442 10.9312 2.07816 11.1128C2.00191 11.2943 1.98096 11.4943 2.01793 11.6878C2.0549 11.8812 2.14816 12.0594 2.286 12.2C2.35495 12.2704 2.40935 12.3537 2.44611 12.4451C2.48287 12.5365 2.50126 12.6343 2.50024 12.7328C2.49922 12.8313 2.4788 12.9287 2.44016 13.0193C2.40151 13.1099 2.34539 13.1921 2.275 13.261C2.20461 13.3299 2.12133 13.3843 2.02992 13.4211C1.93851 13.4579 1.84075 13.4763 1.74222 13.4752C1.6437 13.4742 1.54634 13.4538 1.45571 13.4152C1.36508 13.3765 1.28295 13.3204 1.214 13.25C0.755713 12.7829 0.499294 12.1544 0.500001 11.5V2.5ZM11 1.5H3C2.73478 1.5 2.48043 1.60536 2.29289 1.79289C2.10536 1.98043 2 2.23478 2 2.5V9.208C2.31534 9.0702 2.65586 8.99937 3 9H11V1.5ZM3.5 12.25C3.5 12.1837 3.52634 12.1201 3.57322 12.0732C3.62011 12.0263 3.6837 12 3.75 12H7.25C7.31631 12 7.37989 12.0263 7.42678 12.0732C7.47366 12.1201 7.5 12.1837 7.5 12.25V15.5C7.5 15.5464 7.48707 15.5919 7.46266 15.6314C7.43826 15.6709 7.40333 15.7028 7.3618 15.7236C7.32028 15.7444 7.27379 15.7532 7.22755 15.749C7.18131 15.7448 7.13714 15.7279 7.1 15.7L5.65 14.613C5.60679 14.5804 5.55413 14.5627 5.5 14.5627C5.44587 14.5627 5.39321 14.5804 5.35 14.613L3.9 15.7C3.86286 15.7279 3.81869 15.7448 3.77245 15.749C3.72621 15.7532 3.67972 15.7444 3.6382 15.7236C3.59667 15.7028 3.56175 15.6709 3.53734 15.6314C3.51293 15.5919 3.5 15.5464 3.5 15.5V12.25Z" fill="#8B949E"/>
</svg>
